# xmcd
#
# Track frame offsets: 
#        150
#        15506
#        39956
#
# Disc length: 992 seconds
#
# Revision: 0
# Processed by: cddbd v1.5.2PL0 Copyright (c) Steve Scherf et al.
# Submitted via: ExactAudioCopy v0.99pb5
#
DISCID=1403de03
DTITLE=Tom Hollister Trio - The EP
DYEAR=2010
DGENRE=Blues
TTITLE0=Tell Her Not To Go
TTITLE1=Hold You Down
TTITLE2=Tied Up In Blue
EXTD=
EXTT0=
EXTT1=
EXTT2=
PLAYORDER=
